<svg id="Layer_3" data-name="Layer 3" xmlns="http://www.w3.org/2000/svg" xmlns:xlink="http://www.w3.org/1999/xlink" viewBox="0 0 1500 1000"><defs><style>.cls-1{fill:none;}.cls-2{clip-path:url(#clip-path);}.cls-3{fill:#2a6b11;}.cls-4{fill:#ff0;}</style><clipPath id="clip-path"><path class="cls-1" d="M2801.39-2.22H1795.82V1002.22H3304.18V-2.22ZM9749.18,2611.43l157.07,316.48,349.75,50-252.46,247.16,60.49,348.06L9751,3409.5l-312.34,165.07,58.94-348.36L9244,2980.14l349.52-51.56ZM1138.28,3944.62h-775a63,63,0,0,0-63,63v798.45a47,47,0,0,0,47,47h804a50,50,0,0,0,50-49.95V4007.63A63,63,0,0,0,1138.28,3944.62Zm2911.55-757.9c75.1,169.86,185.93,296.89,300.17,345.65,114.24-48.76,225.07-175.79,300.17-345.65,70.43-159.29,95.6-327.31,69-450-106.49-46.16-234.51-71.13-369.15-71.13s-262.66,25-369.15,71.13C3954.23,2859.41,3979.4,3027.43,4049.83,3186.72ZM365.17,2749.5c.77,457.06,17.61,675.85,384.83,778.57,366.51-102.52,384-320.64,384.83-775.89C1025.47,2699.63,890.07,2671,747.11,2671,606.63,2671,473.51,2698.69,365.17,2749.5Zm2508.09-13c-98.86-36.86-213.41-56.68-333.23-56.68-112,0-219.34,17.31-313.62,49.65,96.18,128.37,58.12,257.93,24,373.85-28.78,97.79-56,190.16-2.17,270.14,52.79,78.48,160.67,107,247.35,129.86,20.21,5.34,39.38,10.46,56.8,15.84,17.43-5.38,36.6-10.5,56.81-15.84,86.68-22.89,194.55-51.38,247.34-129.86,53.81-80,26.62-172.35-2.17-270.14C2820.87,2989.51,2783.61,2862.57,2873.26,2736.5Zm3190.48,2623v385.3h257.31v-385.3ZM4489.45,5808.88v-479h-278.9v479Zm69.64-1778.59c-59.85-26.91-132.53-41.51-209.09-41.51s-149.24,14.6-209.09,41.51a154.32,154.32,0,0,1-105.47,106.36c.06,399.13,4.57,587,314.56,673.75,310-86.71,314.5-274.62,314.56-673.75A154.3,154.3,0,0,1,4559.09,4030.29Zm-1529.82-64.83h-54.22c-92.58,55-177.12,61.65-245.23,49.81-55.25-9.71-99.77-31.57-129.13-49.81H2496.51c-44.44,25.58-86.9,40.57-126.36,48.23-124.24,24.15-219.35-24.55-256.44-48.23h-42.39C2045.51,4342.34,2175,4567.84,2288,4690.65a758.26,758.26,0,0,0,82.17,77c60.45,48.62,114.76,76.71,146.17,90.61,16.42,7.34,26.52,10.73,27.94,11.2l5.76,1.9,5.61-2.45c7.73-3.47,15.39-7,22.81-10.65a751.4,751.4,0,0,0,151.38-96.45c158.41-130.16,232.6-303,267.33-440.34C3041,4147.79,3032.19,3999.88,3029.27,3965.46Zm3120.73,18c-43.78,57.24-177.67,104.37-286,104.37a309.66,309.66,0,0,1-46.74-3.36c-31,113.22-9.12,275.27,58.64,428.5C5944.49,4668,6045.69,4784,6150,4828.55,6254.31,4784,6355.51,4668,6424.09,4513c67.75-153.23,89.59-315.28,58.63-428.5a309.75,309.75,0,0,1-46.74,3.36C6327.66,4087.81,6193.78,4040.68,6150,3983.44ZM9994.71,5359.59V5837a287.56,287.56,0,0,1-8.7,71.69,231.88,231.88,0,0,1-34.41,75.52,222.15,222.15,0,0,1-53.4,53.62,243,243,0,0,1-71.35,34.59,267.36,267.36,0,0,1-76.85,11.17c-51.9,0-102.88-15.1-143.53-42.53a225.3,225.3,0,0,1-39.71-34.05,221.26,221.26,0,0,1-32.61-46.06,239.86,239.86,0,0,1-21.74-58.74,290.67,290.67,0,0,1-7.12-65.21V5359.59Zm-2289.42,52.46V5981.3a254.17,254.17,0,0,1,45.18,3.93,263.4,263.4,0,0,1,41.35,11c10.89,3.82,22.09,8.45,35.23,14.54,7.53,3.5,14.82,7.06,21.87,10.5l9.24,4.49c29,14,57.86,26.62,91.84,26.62a148.25,148.25,0,0,0,48.07-8.31c15.36-5.19,30.21-12.38,45.33-19.92l4.48-2.23.05,0c12.85-6.41,26.13-13.05,40.55-19.05a277.88,277.88,0,0,1,54.69-16.76,269.21,269.21,0,0,1,51.54-4.78V5412.05Zm-4941-29.3v420.3a254.17,254.17,0,0,1-7.62,63.12,204.79,204.79,0,0,1-30.13,66.49,195,195,0,0,1-46.76,47.21,212.49,212.49,0,0,1-62.48,30.46,233.13,233.13,0,0,1-67.3,9.83c-45.45,0-90.09-13.3-125.69-37.44a197.87,197.87,0,0,1-34.77-30,194.74,194.74,0,0,1-28.56-40.56,211.56,211.56,0,0,1-19-51.72,257.26,257.26,0,0,1-6.24-57.41v-420.3Zm-2259-2.92v569.25a254.17,254.17,0,0,1,45.18,3.94,262.32,262.32,0,0,1,41.35,11c10.89,3.81,22.09,8.44,35.23,14.54,7.53,3.5,14.82,7.06,21.87,10.5l9.24,4.48c29,14,57.86,26.63,91.84,26.63a148.27,148.27,0,0,0,48.07-8.32c15.36-5.18,30.21-12.37,45.33-19.91l4.48-2.23,0,0c12.85-6.41,26.13-13.06,40.55-19.06a277.15,277.15,0,0,1,54.69-16.75,269.2,269.2,0,0,1,51.54-4.79V5379.83ZM8467,7249.5v-499a67,67,0,0,0-67-67H7500a67,67,0,0,0-67,67v499a67,67,0,0,0,67,67h900A67,67,0,0,0,8467,7249.5Zm1800-566H9233v633h1034ZM1052,8426.83V8173.17a82.37,82.37,0,0,0-41.18-71.33L791.18,7975a82.37,82.37,0,0,0-82.36,0L489.14,8101.84A82.37,82.37,0,0,0,448,8173.17v253.66a82.37,82.37,0,0,0,41.18,71.33L708.82,8625a82.37,82.37,0,0,0,82.36,0l219.68-126.83A82.37,82.37,0,0,0,1052,8426.83Zm1800,47.55V8125.62l-302-174.38-302,174.38v348.76l302,174.38ZM4350,7969c-182.81,0-331,148.19-331,331s148.19,331,331,331,331-148.19,331-331S4532.81,7969,4350,7969Zm342-699.41V6730.41a75.41,75.41,0,0,0-75.41-75.41H4077.41a75.41,75.41,0,0,0-75.41,75.41v539.18a75.41,75.41,0,0,0,75.41,75.41h539.18A75.41,75.41,0,0,0,4692,7269.59ZM6495,6655H5805v690h690ZM918.65,6625.52H581.35A82.36,82.36,0,0,0,510,6666.7L341.37,6958.82a82.32,82.32,0,0,0,0,82.36L510,7333.3a82.36,82.36,0,0,0,71.33,41.18h337.3A82.36,82.36,0,0,0,990,7333.3l168.65-292.12a82.32,82.32,0,0,0,0-82.36L990,6666.7A82.36,82.36,0,0,0,918.65,6625.52Zm1847.56,0H2333.79L2117.59,7000l216.2,374.48h432.42L2982.41,7000Zm186.6-4695.87c2.5-5.32,7.79-34.66,9.13-43.25,3.07-19.73.35-33-3.77-53.05-1.39-6.74-3-14.39-4.51-23.27-3.93-22.61-7.88-43.07-16.4-64.58-.43-1.08-.86-2.17-1.28-3.27-1-2.59-1.95-5.18-2.86-7.78-9.49-26.92-13.1-50.45-10.74-69.93,1.83-15.11,6.77-29.71,15.08-44.62,1.58-2.84,9-13.93,13-19.89,1.06-1.6,1.92-2.88,2.37-3.62-7.49,0-17.37-.1-27.36-.83-39.38-2.88-73.14-12.81-108.89-23.33-13.76-4-28-8.24-43-12.18-33.55-8.78-49.64-12.53-78.88-15.52-19-1.93-20.84-2.91-41.13-3.64-21.84-.79-45.14-1.07-55.9-.61-7,.3-24.61,1.19-31.76,1.69-1.2.08-2.6.12-4.19.12-9.34,0-26-1.37-49.4-4.08-31-3.59-66.72-8.68-85.24-11.39-10.39-1.53-16.09-2.52-21.11-3.4-4.63-.8-8.63-1.5-15.17-2.42-14.67-2.07-23.11-5.89-23.2-5.93-1.62,0-11.49-3.84-11.6-3.88a5.07,5.07,0,0,1-3.08-1.18l-.21.1c1.46,5.44,2.86,11,4.15,16.44,4.28,18,7.74,36.67,10.3,55.36a664.84,664.84,0,0,1,5.81,88.81c0,27.24-1.39,55.19-4.31,85.45-2.57,26.63-5.95,51.79-8.93,74-1.41,10.54-2.75,20.5-3.92,30-1,8-1.77,15-2.37,21.14v.24a161.74,161.74,0,0,0,21.83,14.06,226.42,226.42,0,0,0,63.3,22.33c6.86,1.35,18.19,2.07,32.77,2.07h0c26.91,0,58.72-2.44,77.34-5.94,15.72-2.94,49.4-12.19,60.47-15.23,5.22-1.43,9.49-2.29,13.91-3.62,7.87-2.37,8.12-3.52,17.65-5.57,3.07-.66,21.2-5,24.62-5.88,14.87-3.86,18.68-3.77,33.79-5.33,22.09-2.27,42.8-3.52,58.82-3.52q3.51,0,6.78.09c23.93.61,58.48,3.42,81.71,8.29,43.82,9.2,66.61,17.74,87.1,32.63,3.1,2.25,15,11,18.82,13.93l.5,0ZM1500,0H0V1000H1500Z"/></clipPath></defs><g class="cls-2"><path class="cls-3" d="M0,0H1500V1000H0Z"/><path id="a" class="cls-4" d="M245.77,618.27,193.7,659.34l19.89-64.42,19.89,64.42L181.4,618.27Z"/><path id="a-2" data-name="a" class="cls-4" d="M374.51,425.16l-52.07,41.07,19.89-64.41,19.89,64.41-52.08-41.07Z"/><path id="a-3" data-name="a" class="cls-4" d="M503.25,317.88,451.18,359l19.89-64.42L491,359l-52.08-41.07Z"/><path id="a-4" data-name="a" class="cls-4" d="M642.72,253.51l-52.08,41.07,19.89-64.42,19.89,64.42-52.07-41.07Z"/><path id="a-5" data-name="a" class="cls-4" d="M782.18,232.05l-52.07,41.07L750,208.71l19.89,64.41-52.07-41.07Z"/><path id="a-6" data-name="a" class="cls-4" d="M921.65,253.51l-52.07,41.07,19.89-64.42,19.89,64.42-52.08-41.07Z"/><path id="a-7" data-name="a" class="cls-4" d="M1061.12,317.88,1009,359l19.89-64.42L1048.82,359l-52.07-41.07Z"/><path id="a-8" data-name="a" class="cls-4" d="M1189.86,425.16l-52.08,41.07,19.89-64.41,19.89,64.41-52.07-41.07Z"/><path id="a-9" data-name="a" class="cls-4" d="M1318.6,618.27l-52.08,41.07,19.89-64.42,19.89,64.42-52.07-41.07Z"/><path id="a-10" data-name="a" class="cls-4" d="M621.26,371.52l-52.07,41.07,19.89-64.42L609,412.59l-52.08-41.07Z"/><path id="a-11" data-name="a" class="cls-4" d="M782.18,371.52l-52.07,41.07L750,348.17l19.89,64.42-52.07-41.07Z"/><path id="a-12" data-name="a" class="cls-4" d="M943.11,371.52,891,412.59l19.89-64.42,19.89,64.42-52.07-41.07Z"/><path id="b" class="cls-4" d="M737.13,500,750,424.9,762.87,500h-6.43V714.56l6.43,12.88v53.64L750,759.62l-12.87,21.46V727.44l6.43-12.88V500Z"/><path id="b-2" data-name="b" class="cls-4" d="M816.76,522.32l62.2-44-44,62.2L830.41,536,678.69,687.69l-4.55,13.66-37.93,37.93L642.28,715,618,721.07l37.93-37.93,13.66-4.55L821.31,526.87Z"/><path id="b-3" data-name="b" class="cls-4" d="M665,540.52l-44-62.2,62.2,44-4.55,4.55L830.41,678.59l13.66,4.55L882,721.07,857.72,715l6.07,24.28-37.93-37.93-4.55-13.66L669.59,536Z"/></g></svg>