<svg id="Layer_3" data-name="Layer 3" xmlns="http://www.w3.org/2000/svg" xmlns:xlink="http://www.w3.org/1999/xlink" viewBox="0 0 1500 1000"><defs><style>.cls-1{fill:none;}.cls-2{clip-path:url(#clip-path);}.cls-3{fill:#ff0;}</style><clipPath id="clip-path"><path class="cls-1" d="M-798.61-2.22H-1804.18V1002.22H-295.82V-2.22ZM6149.18,2611.43l157.07,316.48L6656,2978l-252.46,247.16L6464,3573.17,6151,3409.5l-312.34,165.07,58.94-348.36L5644,2980.14l349.52-51.56Zm-8610.9,1333.19h-775a63,63,0,0,0-63,63v798.45a47,47,0,0,0,47,47h804a50,50,0,0,0,50-49.95V4007.63A63,63,0,0,0-2461.72,3944.62Zm2911.55-757.9c75.1,169.86,185.93,296.89,300.17,345.65,114.24-48.76,225.07-175.79,300.17-345.65,70.43-159.29,95.6-327.31,69-450-106.49-46.16-234.51-71.13-369.15-71.13s-262.66,25-369.15,71.13C354.23,2859.41,379.4,3027.43,449.83,3186.72ZM-3234.83,2749.5c.77,457.06,17.61,675.85,384.83,778.57,366.51-102.52,384-320.64,384.83-775.89-109.36-52.55-244.76-81.14-387.72-81.14C-2993.37,2671-3126.49,2698.69-3234.83,2749.5Zm2508.09-13c-98.86-36.86-213.41-56.68-333.23-56.68-112,0-219.34,17.31-313.62,49.65,96.18,128.37,58.12,257.93,24,373.85-28.78,97.79-56,190.16-2.17,270.14,52.79,78.48,160.67,107,247.35,129.86,20.21,5.34,39.38,10.46,56.8,15.84,17.43-5.38,36.6-10.5,56.81-15.84,86.68-22.89,194.55-51.38,247.34-129.86,53.81-80,26.62-172.35-2.17-270.14C-779.13,2989.51-816.39,2862.57-726.74,2736.5Zm3190.48,2623v385.3h257.31v-385.3ZM889.45,5808.88v-479H610.55v479Zm69.64-1778.59c-59.85-26.91-132.53-41.51-209.09-41.51s-149.24,14.6-209.09,41.51a154.32,154.32,0,0,1-105.47,106.36c.06,399.13,4.57,587,314.56,673.75,310-86.71,314.5-274.62,314.56-673.75A154.3,154.3,0,0,1,959.09,4030.29Zm-1529.82-64.83h-54.22c-92.58,55-177.12,61.65-245.23,49.81-55.25-9.71-99.77-31.57-129.13-49.81h-104.18c-44.44,25.58-86.9,40.57-126.36,48.23-124.24,24.15-219.35-24.55-256.44-48.23h-42.39c-25.81,376.88,103.64,602.38,216.66,725.19a758.26,758.26,0,0,0,82.17,77c60.45,48.62,114.76,76.71,146.17,90.61,16.42,7.34,26.52,10.73,27.94,11.2l5.76,1.9,5.61-2.45c7.73-3.47,15.39-7,22.81-10.65a751.4,751.4,0,0,0,151.38-96.45c158.41-130.16,232.6-303,267.33-440.34C-559,4147.79-567.81,3999.88-570.73,3965.46Zm3120.73,18c-43.78,57.24-177.67,104.37-286,104.37a309.66,309.66,0,0,1-46.74-3.36c-31,113.22-9.12,275.27,58.64,428.5C2344.49,4668,2445.69,4784,2550,4828.55,2654.31,4784,2755.51,4668,2824.09,4513c67.75-153.23,89.59-315.28,58.63-428.5a309.75,309.75,0,0,1-46.74,3.36C2727.66,4087.81,2593.78,4040.68,2550,3983.44ZM6394.71,5359.59V5837a287.56,287.56,0,0,1-8.7,71.69,231.88,231.88,0,0,1-34.41,75.52,222.15,222.15,0,0,1-53.4,53.62,243,243,0,0,1-71.35,34.59,267.36,267.36,0,0,1-76.85,11.17c-51.9,0-102.88-15.1-143.53-42.53a225.3,225.3,0,0,1-39.71-34.05,221.26,221.26,0,0,1-32.61-46.06,239.86,239.86,0,0,1-21.74-58.74,290.67,290.67,0,0,1-7.12-65.21V5359.59Zm-2289.42,52.46V5981.3a254.17,254.17,0,0,1,45.18,3.93,263.4,263.4,0,0,1,41.35,11c10.89,3.82,22.09,8.45,35.23,14.54,7.53,3.5,14.82,7.06,21.87,10.5l9.24,4.49c29,14,57.86,26.62,91.84,26.62a148.25,148.25,0,0,0,48.07-8.31c15.36-5.19,30.21-12.38,45.33-19.92l4.48-2.23.05,0c12.85-6.41,26.13-13.05,40.55-19.05a277.88,277.88,0,0,1,54.69-16.76,269.21,269.21,0,0,1,51.54-4.78V5412.05Zm-4941-29.3v420.3a254.17,254.17,0,0,1-7.62,63.12,204.79,204.79,0,0,1-30.13,66.49,195,195,0,0,1-46.76,47.21,212.49,212.49,0,0,1-62.48,30.46,233.13,233.13,0,0,1-67.3,9.83c-45.45,0-90.09-13.3-125.69-37.44a197.87,197.87,0,0,1-34.77-30,194.74,194.74,0,0,1-28.56-40.56,211.56,211.56,0,0,1-19-51.72,257.26,257.26,0,0,1-6.24-57.41v-420.3Zm-2259-2.92v569.25a254.17,254.17,0,0,1,45.18,3.94,262.32,262.32,0,0,1,41.35,11c10.89,3.81,22.09,8.44,35.23,14.54,7.53,3.5,14.82,7.06,21.87,10.5l9.24,4.48c29,14,57.86,26.63,91.84,26.63a148.27,148.27,0,0,0,48.07-8.32c15.36-5.18,30.21-12.37,45.33-19.91l4.48-2.23,0,0c12.85-6.41,26.13-13.06,40.55-19.06a277.15,277.15,0,0,1,54.69-16.75,269.2,269.2,0,0,1,51.54-4.79V5379.83ZM4867,7249.5v-499a67,67,0,0,0-67-67H3900a67,67,0,0,0-67,67v499a67,67,0,0,0,67,67h900A67,67,0,0,0,4867,7249.5Zm1800-566H5633v633H6667ZM-2548,8426.83V8173.17a82.37,82.37,0,0,0-41.18-71.33L-2808.82,7975a82.37,82.37,0,0,0-82.36,0l-219.68,126.83a82.37,82.37,0,0,0-41.18,71.33v253.66a82.37,82.37,0,0,0,41.18,71.33L-2891.18,8625a82.37,82.37,0,0,0,82.36,0l219.68-126.83A82.37,82.37,0,0,0-2548,8426.83Zm1800,47.55V8125.62l-302-174.38-302,174.38v348.76l302,174.38ZM750,7969c-182.81,0-331,148.19-331,331s148.19,331,331,331,331-148.19,331-331S932.81,7969,750,7969Zm342-699.41V6730.41a75.41,75.41,0,0,0-75.41-75.41H477.41A75.41,75.41,0,0,0,402,6730.41v539.18A75.41,75.41,0,0,0,477.41,7345h539.18A75.41,75.41,0,0,0,1092,7269.59ZM2895,6655H2205v690h690Zm-5576.35-29.48h-337.3A82.36,82.36,0,0,0-3090,6666.7l-168.65,292.12a82.32,82.32,0,0,0,0,82.36L-3090,7333.3a82.36,82.36,0,0,0,71.33,41.18h337.3A82.36,82.36,0,0,0-2610,7333.3l168.65-292.12a82.32,82.32,0,0,0,0-82.36L-2610,6666.7A82.36,82.36,0,0,0-2681.35,6625.52Zm1847.56,0h-432.42L-1482.41,7000l216.2,374.48h432.42L-617.59,7000Zm186.6-4695.87c2.5-5.32,7.79-34.66,9.13-43.25,3.07-19.73.35-33-3.77-53.05-1.39-6.74-3-14.39-4.51-23.27-3.93-22.61-7.88-43.07-16.4-64.58-.43-1.08-.86-2.17-1.28-3.27-1-2.59-2-5.18-2.86-7.78-9.49-26.92-13.1-50.45-10.74-69.93,1.83-15.11,6.77-29.71,15.08-44.62,1.58-2.84,9-13.93,13-19.89,1.06-1.6,1.92-2.88,2.37-3.62-7.49,0-17.37-.1-27.36-.83-39.38-2.88-73.14-12.81-108.89-23.33-13.76-4-28-8.24-43-12.18-33.55-8.78-49.64-12.53-78.88-15.52-19-1.93-20.84-2.91-41.13-3.64-21.84-.79-45.14-1.07-55.9-.61-7,.3-24.61,1.19-31.76,1.69-1.2.08-2.6.12-4.19.12-9.34,0-26-1.37-49.4-4.08-31-3.59-66.72-8.68-85.24-11.39-10.39-1.53-16.09-2.52-21.11-3.4-4.63-.8-8.63-1.5-15.17-2.42-14.67-2.07-23.11-5.89-23.2-5.93-1.62,0-11.49-3.84-11.6-3.88a5.07,5.07,0,0,1-3.08-1.18l-.21.1c1.46,5.44,2.86,11,4.15,16.44,4.28,18,7.74,36.67,10.3,55.36a664.84,664.84,0,0,1,5.81,88.81c0,27.24-1.39,55.19-4.31,85.45-2.57,26.63-5.95,51.79-8.93,74-1.41,10.54-2.75,20.5-3.92,30-1,8-1.77,15-2.37,21.14v.24a161.74,161.74,0,0,0,21.83,14.06,226.42,226.42,0,0,0,63.3,22.33c6.86,1.35,18.19,2.07,32.77,2.07h0c26.91,0,58.72-2.44,77.34-5.94,15.72-2.94,49.4-12.19,60.47-15.23,5.22-1.43,9.49-2.29,13.91-3.62,7.87-2.37,8.12-3.52,17.65-5.57,3.07-.66,21.2-5,24.62-5.88,14.87-3.86,18.68-3.77,33.79-5.33,22.09-2.27,42.8-3.52,58.82-3.52q3.51,0,6.78.09c23.93.61,58.48,3.42,81.71,8.29,43.82,9.2,66.61,17.74,87.1,32.63,3.1,2.25,15,11,18.82,13.93l.5,0ZM-2100,0H-3600V1000h1500Z"/></clipPath></defs><path id="a" class="cls-3" d="M274.31,611.28,225.19,650,244,589.26,262.72,650l-49.13-38.75Z"/><path id="a-2" data-name="a" class="cls-3" d="M395.77,429.11l-49.13,38.74,18.76-60.77,18.77,60.77L335,429.11Z"/><path id="a-3" data-name="a" class="cls-3" d="M517.22,327.9l-49.13,38.74,18.76-60.77,18.77,60.77L456.49,327.9Z"/><path id="a-4" data-name="a" class="cls-3" d="M648.79,267.17l-49.13,38.74,18.77-60.76,18.76,60.76-49.13-38.74Z"/><path id="a-5" data-name="a" class="cls-3" d="M780.36,246.93l-49.12,38.74L750,224.91l18.76,60.76-49.12-38.74Z"/><path id="a-6" data-name="a" class="cls-3" d="M911.94,267.17l-49.13,38.74,18.76-60.76,18.77,60.76-49.13-38.74Z"/><path id="a-7" data-name="a" class="cls-3" d="M1043.51,327.9l-49.13,38.74,18.77-60.77,18.76,60.77L982.78,327.9Z"/><path id="a-8" data-name="a" class="cls-3" d="M1165,429.11l-49.13,38.74,18.77-60.77,18.76,60.77-49.13-38.74Z"/><path id="a-9" data-name="a" class="cls-3" d="M1286.41,611.28,1237.28,650l18.77-60.77L1274.81,650l-49.12-38.75Z"/><path id="a-10" data-name="a" class="cls-3" d="M628.55,378.5l-49.13,38.75,18.77-60.77L617,417.25,567.82,378.5Z"/><path id="a-11" data-name="a" class="cls-3" d="M780.36,378.5l-49.12,38.75L750,356.48l18.76,60.77L719.64,378.5Z"/><path id="a-12" data-name="a" class="cls-3" d="M932.18,378.5l-49.13,38.75,18.76-60.77,18.77,60.77L871.45,378.5Z"/><path id="b" class="cls-3" d="M737.85,499.71,750,428.86l12.15,70.85h-6.08V702.13l6.08,12.15v50.6L750,744.64l-12.15,20.24v-50.6l6.08-12.15V499.71Z"/><path id="b-2" data-name="b" class="cls-3" d="M813,520.77l58.68-41.51-41.51,58.68-4.29-4.29L682.73,676.78l-4.3,12.88-35.78,35.79,5.73-22.91-22.9,5.73,35.78-35.78,12.88-4.3L817.27,525.06Z"/><path id="b-3" data-name="b" class="cls-3" d="M669.85,537.94l-41.51-58.68L687,520.77l-4.29,4.29L825.86,668.19l12.88,4.3,35.78,35.78-22.9-5.73,5.73,22.91-35.78-35.79-4.3-12.88L674.14,533.65Z"/></svg>